<?xml version="1.0" standalone="no"?>
<!DOCTYPE svg PUBLIC "-//W3C//DTD SVG 20010904//EN"
 "http://www.w3.org/TR/2001/REC-SVG-20010904/DTD/svg10.dtd">
<svg version="1.0" xmlns="http://www.w3.org/2000/svg"
 width="225.000000pt" height="225.000000pt" viewBox="0 0 225.000000 225.000000"
 preserveAspectRatio="xMidYMid meet">
<metadata>
Created by potrace 1.11, written by Peter Selinger 2001-2013
</metadata>
<g transform="translate(0.000000,225.000000) scale(0.100000,-0.100000)"
fill="#000000" stroke="none">
<path d="M232 1679 c-129 -11 -156 -22 -160 -69 -3 -30 2 -40 51 -85 34 -31
58 -62 62 -80 31 -142 60 -240 85 -292 25 -51 38 -65 74 -83 61 -29 183 -41
313 -30 143 12 177 23 227 73 54 54 82 116 115 251 32 131 50 151 132 150 73
-1 91 -24 123 -158 42 -176 107 -272 199 -297 68 -18 248 -28 335 -18 164 18
202 65 258 312 28 122 37 141 94 182 35 27 40 35 40 72 0 37 -3 42 -31 52 -17
6 -95 16 -171 22 -161 13 -500 -1 -632 -26 -101 -19 -335 -19 -446 0 -174 30
-465 40 -668 24z"/>
<path d="M540 765 c-16 -20 21 -78 97 -152 139 -136 300 -203 487 -203 191 0
349 66 489 204 31 31 69 75 84 97 24 37 25 41 10 57 -16 15 -19 15 -54 -6
-205 -122 -420 -184 -581 -168 -149 15 -319 73 -454 156 -55 34 -61 35 -78 15z"/>
</g>
</svg>
